<?xml version="1.0" standalone="no"?>
<!DOCTYPE svg PUBLIC "-//W3C//DTD SVG 20010904//EN"
 "http://www.w3.org/TR/2001/REC-SVG-20010904/DTD/svg10.dtd">
<svg version="1.0" xmlns="http://www.w3.org/2000/svg"
 width="553.000000pt" height="553.000000pt" viewBox="0 0 553.000000 553.000000"
 preserveAspectRatio="xMidYMid meet">
<metadata>
Created by potrace 1.14, written by Peter Selinger 2001-2017
</metadata>
<g transform="translate(0.000000,553.000000) scale(0.100000,-0.100000)"
fill="#000000" stroke="none">
<path d="M642 5008 c-7 -7 -12 -19 -12 -27 0 -8 -7 -23 -16 -33 -10 -10 -18
-38 -19 -66 -3 -51 -37 -117 -65 -127 -8 -3 -26 -14 -39 -24 -21 -16 -23 -21
-10 -32 8 -8 34 -14 58 -14 58 0 62 -23 13 -67 -39 -34 -41 -50 -13 -83 34
-38 33 -44 -8 -70 -39 -24 -40 -26 -35 -67 6 -48 35 -78 67 -70 17 4 18 3 7
-17 -6 -12 -13 -30 -15 -39 -2 -9 -8 -36 -13 -59 -8 -33 -6 -46 6 -64 10 -14
15 -39 13 -65 -2 -28 5 -60 20 -91 12 -26 21 -51 21 -55 -3 -12 62 -56 88 -60
19 -2 26 -11 33 -41 10 -39 39 -67 76 -70 12 -1 21 -6 22 -12 3 -44 10 -58 47
-94 39 -38 42 -45 36 -80 -4 -28 -2 -42 11 -54 19 -20 61 -22 68 -4 4 9 6 9 6
-1 1 -8 6 -10 14 -6 6 4 -1 -7 -18 -25 -24 -26 -27 -35 -18 -49 6 -9 15 -16
20 -15 4 1 20 4 33 7 36 9 81 -32 78 -70 -2 -30 23 -76 88 -162 41 -54 114
-122 130 -122 13 0 94 -85 94 -98 0 -4 13 -22 30 -40 28 -31 29 -34 15 -56
-51 -78 5 -115 63 -41 11 13 22 21 26 18 11 -12 6 -24 -21 -49 l-27 -25 21
-27 c11 -15 35 -31 54 -36 43 -12 40 -8 45 -48 3 -18 16 -44 29 -57 l23 -24
20 24 c11 13 29 34 39 46 10 12 31 24 47 25 28 3 29 1 33 -41 4 -56 35 -107
71 -117 49 -14 106 -11 126 8 11 10 27 16 35 13 9 -2 39 -7 66 -10 70 -8 83
-13 90 -36 4 -10 19 -26 34 -33 15 -8 38 -31 52 -50 13 -20 28 -36 32 -36 5 0
6 -4 2 -9 -5 -10 18 -20 58 -25 12 -2 41 -8 65 -15 45 -13 53 -23 72 -98 8
-30 19 -47 44 -62 46 -29 147 -34 201 -10 22 9 72 21 110 25 39 4 72 8 75 9
18 3 70 38 78 50 5 9 34 20 71 26 67 10 121 47 121 81 0 31 16 27 29 -8 8 -22
19 -34 30 -34 42 0 83 14 104 36 28 30 30 30 45 -5 10 -23 19 -29 40 -28 15 2
28 9 28 17 1 8 2 23 3 33 1 24 38 22 51 -3 13 -24 45 -26 58 -4 5 8 15 17 23
18 39 8 75 20 86 29 7 5 13 6 13 1 0 -5 7 -1 15 10 11 14 12 24 3 39 -9 17 -8
19 8 13 47 -19 79 1 105 67 7 17 19 40 27 49 8 9 27 42 42 73 23 47 27 62 19
88 -5 18 -9 33 -9 34 0 0 7 0 15 -1 8 -1 34 -24 57 -51 24 -26 59 -63 79 -82
27 -25 35 -40 31 -55 -5 -19 -2 -20 24 -14 15 4 34 16 41 26 7 10 28 22 46 26
41 10 39 9 62 19 11 5 26 17 33 27 7 10 34 32 59 49 51 36 67 50 101 94 29 36
102 114 131 137 18 15 19 21 9 43 -6 14 -16 24 -22 22 -21 -7 -38 22 -31 53 5
21 0 44 -16 78 -32 68 -106 162 -126 162 -5 0 -14 9 -21 21 -8 12 -9 18 -2 14
6 -4 22 0 35 9 13 9 39 24 57 34 210 117 247 140 278 176 19 22 56 61 83 86
43 42 47 49 43 83 -4 31 0 43 24 70 47 54 60 188 28 294 -11 37 -21 88 -22
114 -1 26 -4 51 -8 54 -3 4 -3 19 2 34 6 23 3 32 -25 57 -18 16 -51 46 -74 67
-22 20 -41 39 -41 41 0 4 61 19 72 18 3 -1 11 5 18 12 8 11 7 18 -9 33 -13 12
-17 23 -12 32 6 9 11 10 15 2 11 -18 72 18 89 53 8 18 30 43 50 56 19 13 43
39 52 57 18 33 18 34 -3 49 -18 13 -20 19 -11 36 6 11 8 32 4 46 -4 15 -5 27
-4 27 2 0 -5 16 -15 35 -11 19 -25 46 -32 60 l-13 25 -2163 3 c-1675 1 -2167
-1 -2176 -10z m4238 -17 c0 -6 -4 -12 -8 -15 -5 -3 -9 1 -9 9 0 8 4 15 9 15 4
0 8 -4 8 -9z m-96 -152 c-3 -5 -10 -7 -15 -3 -5 3 -7 10 -3 15 3 5 10 7 15 3
5 -3 7 -10 3 -15z"/>
<path d="M5468 3986 c-33 -105 -92 -248 -102 -251 -6 -2 -27 -6 -47 -9 -25 -5
-39 -14 -47 -32 -18 -37 -14 -71 8 -92 l21 -19 -42 -79 c-304 -574 -836 -1064
-1439 -1327 -213 -92 -544 -182 -745 -202 -33 -3 -69 -7 -80 -9 -15 -2 -25 9
-41 45 -58 124 -228 146 -317 40 -14 -17 -28 -45 -32 -62 l-7 -32 -72 6 c-63
6 -121 13 -251 32 -22 3 -49 9 -60 12 -11 3 -29 7 -40 9 -78 11 -325 88 -425
131 -19 9 -51 22 -70 30 -374 162 -701 408 -1018 766 -113 128 -286 388 -371
559 l-34 67 27 31 c14 17 26 40 26 51 0 52 -53 91 -105 79 -27 -6 -31 -4 -33
14 0 11 -6 30 -12 41 -6 11 -28 72 -50 135 l-40 115 3 -60 c3 -40 17 -92 42
-155 27 -69 37 -108 36 -145 -1 -53 8 -70 49 -96 14 -9 43 -52 65 -95 41 -83
93 -172 153 -264 35 -54 170 -240 181 -250 4 -3 31 -34 61 -70 68 -81 224
-237 310 -311 66 -56 226 -180 245 -189 5 -3 44 -27 85 -54 93 -61 329 -184
430 -224 125 -49 318 -112 390 -126 14 -3 72 -14 130 -26 58 -12 133 -23 167
-26 34 -3 70 -7 80 -9 10 -2 34 -4 54 -4 35 -1 37 -3 48 -46 32 -129 185 -185
295 -108 42 29 75 83 78 128 2 26 7 28 113 41 33 4 62 8 65 9 3 0 27 4 53 9
27 4 59 10 70 12 12 3 42 9 67 14 25 5 92 23 150 40 58 17 112 33 120 34 16 4
91 32 125 46 11 5 54 23 95 40 87 36 337 165 361 186 8 8 18 14 22 14 9 0 236
155 247 169 3 3 23 19 45 36 21 16 46 36 55 45 9 8 36 32 60 53 70 60 196 185
253 251 29 32 59 66 67 75 8 9 31 37 50 61 19 25 37 47 41 50 17 12 187 276
240 372 47 83 66 109 89 116 16 6 36 22 46 37 14 22 15 32 5 64 -9 32 -8 45 5
77 63 149 100 284 77 284 -5 0 -16 -25 -25 -54z"/>
<path d="M5157 2544 c-2 -3 -33 -9 -68 -15 -35 -6 -78 -17 -97 -26 -18 -9 -47
-19 -65 -22 -25 -5 -34 -14 -41 -37 -6 -19 -20 -35 -38 -43 -17 -8 -35 -27
-42 -45 -28 -67 -80 -238 -79 -256 3 -38 41 -110 56 -105 16 7 44 -22 49 -50
4 -25 20 -45 31 -38 5 3 25 -6 45 -19 87 -57 127 -70 189 -62 58 8 65 8 116 1
16 -3 35 2 47 13 10 9 37 22 58 29 22 8 52 24 67 37 16 13 31 24 35 24 14 0
58 77 61 106 2 16 6 34 10 39 4 6 5 48 3 95 -7 169 -5 160 -65 212 -14 13 -40
44 -59 71 -18 26 -36 47 -39 48 -3 0 -13 2 -21 4 -8 2 -27 5 -42 8 -14 3 -36
11 -48 17 -25 13 -56 20 -63 14z"/>
<path d="M331 2522 c-8 -3 -41 -31 -73 -63 -32 -33 -63 -59 -68 -59 -5 0 -12
-9 -15 -21 -4 -11 -20 -35 -36 -53 -23 -26 -30 -46 -35 -97 -3 -35 -6 -72 -6
-81 1 -10 -4 -18 -11 -18 -6 0 -2 -6 8 -14 27 -19 28 -67 3 -87 l-21 -16 22
-22 c12 -12 25 -19 30 -17 10 7 71 -49 71 -65 0 -5 4 -8 9 -4 5 3 24 -8 42
-24 18 -17 35 -29 38 -28 3 1 23 -11 44 -27 32 -25 42 -28 57 -18 14 9 21 8
30 -3 16 -19 46 -19 53 -1 3 8 31 16 76 20 64 7 75 11 113 47 23 21 38 39 33
39 -6 0 -1 7 9 15 11 8 16 15 11 15 -4 0 2 9 14 19 12 11 22 22 21 25 -1 13
31 62 53 79 22 18 22 22 14 110 -5 51 -8 101 -8 111 0 36 -52 116 -76 116 -5
0 -19 14 -33 30 -14 17 -28 30 -33 30 -4 0 -25 11 -47 25 -52 33 -135 45 -209
30 -12 -2 -32 0 -44 4 -12 4 -29 6 -36 3z"/>
<path d="M2601 1432 c-24 -4 -30 -7 -80 -54 -18 -17 -46 -29 -75 -33 -49 -8
-59 -16 -64 -54 -2 -13 -18 -53 -37 -88 -32 -61 -33 -65 -19 -98 17 -40 17
-48 4 -40 -18 11 -49 -32 -44 -61 3 -14 6 -32 7 -38 3 -17 39 -35 70 -36 18 0
26 -4 21 -11 -30 -49 12 -159 60 -159 8 0 18 -4 21 -10 3 -5 17 -10 30 -10 16
0 24 -6 24 -17 -1 -54 32 -81 99 -82 13 -1 21 -4 18 -9 -13 -21 52 -61 104
-64 43 -2 50 1 50 21 0 11 5 23 10 26 6 3 10 2 10 -4 0 -12 46 -7 63 7 10 9
17 8 25 0 8 -8 12 -9 12 -1 0 16 30 25 44 14 12 -10 36 -1 39 15 1 5 9 8 17 7
21 -2 67 50 86 97 9 22 24 46 34 53 25 18 85 137 89 177 2 19 7 43 12 52 14
27 11 47 -14 72 -12 12 -23 32 -24 45 -3 37 -43 110 -64 116 -11 4 -49 36 -85
72 -104 104 -109 106 -327 88 -32 -3 -66 -1 -75 3 -9 4 -28 6 -41 4z"/>
</g>
</svg>
